<?xml version="1.0" standalone="no"?>
<!DOCTYPE svg PUBLIC "-//W3C//DTD SVG 20010904//EN"
 "http://www.w3.org/TR/2001/REC-SVG-20010904/DTD/svg10.dtd">
<svg version="1.0" xmlns="http://www.w3.org/2000/svg"
 width="1280.000000pt" height="1280.000000pt" viewBox="0 0 1280.000000 1280.000000"
 preserveAspectRatio="xMidYMid meet">
<metadata>
Created by potrace 1.14, written by Peter Selinger 2001-2017
</metadata>
<g transform="translate(0.000000,1280.000000) scale(0.100000,-0.100000)"
fill="#000000" stroke="none">
<path d="M6078 9595 c-2 -2 -48 -6 -103 -10 -55 -3 -116 -7 -135 -9 -19 -3
-64 -7 -100 -11 -36 -3 -83 -8 -105 -11 -66 -8 -98 -12 -150 -19 -27 -4 -61
-8 -75 -11 -14 -2 -41 -7 -60 -10 -19 -3 -44 -7 -55 -9 -151 -28 -178 -33
-207 -40 -13 -3 -32 -7 -43 -9 -11 -2 -72 -16 -135 -31 -63 -15 -122 -28 -130
-30 -8 -2 -17 -4 -20 -6 -3 -1 -9 -3 -15 -4 -5 -1 -17 -5 -25 -8 -14 -6 -149
-44 -180 -52 -102 -24 -550 -189 -702 -259 -31 -14 -62 -26 -67 -26 -6 0 -11
-5 -11 -12 0 -6 -3 -9 -6 -6 -10 11 -358 -165 -559 -282 -49 -29 -100 -58
-112 -64 -13 -6 -23 -14 -23 -18 0 -5 -5 -8 -10 -8 -23 0 -491 -320 -498 -341
-2 -5 -8 -9 -13 -9 -8 0 -138 -98 -159 -120 -3 -3 -30 -25 -60 -50 -30 -25
-60 -49 -66 -55 -6 -5 -40 -35 -75 -65 -215 -187 -464 -440 -659 -670 -25 -29
-54 -64 -65 -76 -11 -12 -29 -35 -40 -50 -11 -16 -28 -36 -37 -46 -10 -10 -18
-22 -18 -27 0 -5 -3 -11 -8 -13 -9 -4 -70 -83 -142 -183 -30 -43 -61 -83 -67
-91 -7 -7 -13 -17 -13 -23 0 -5 -6 -16 -14 -23 -7 -8 -36 -50 -64 -93 -28 -44
-55 -84 -59 -90 -7 -9 -28 -42 -124 -203 -9 -15 -27 -47 -41 -72 -14 -25 -35
-63 -48 -85 -25 -44 -184 -357 -185 -365 0 -3 -8 -21 -17 -40 -108 -230 -260
-639 -323 -865 -30 -106 -47 -171 -51 -187 -5 -24 -13 -54 -19 -75 -10 -36
-55 -239 -61 -273 -3 -19 -10 -55 -15 -80 -6 -25 -12 -58 -14 -75 -6 -35 -13
-80 -19 -115 -4 -22 -7 -45 -22 -155 -18 -144 -18 -138 -30 -275 -20 -210 -3
-327 54 -390 12 -14 25 -33 28 -42 3 -10 9 -18 13 -18 4 0 21 -11 37 -25 16
-14 35 -25 42 -25 6 0 12 -4 12 -10 0 -5 28 -18 62 -29 62 -20 113 -20 6126
-20 l6063 -1 62 21 c107 36 177 98 230 203 29 57 31 68 31 166 -1 58 -4 132
-8 165 -3 33 -8 80 -10 105 -7 72 -17 163 -21 190 -3 14 -7 43 -11 65 -3 22
-7 51 -9 65 -3 14 -7 43 -10 65 -3 22 -10 60 -15 85 -5 25 -12 63 -16 85 -4
22 -8 42 -9 45 -1 6 -15 74 -21 105 -9 46 -14 66 -42 181 -17 66 -47 177 -67
245 -21 68 -38 129 -40 134 -1 6 -5 18 -9 27 -4 9 -9 22 -10 30 -2 7 -5 20 -8
28 -3 8 -16 44 -28 80 -11 36 -25 74 -30 85 -5 11 -20 52 -34 90 -34 98 -67
178 -93 227 -7 15 -13 29 -12 30 2 3 -22 58 -69 158 -14 30 -26 57 -27 60 -4
24 -220 432 -265 500 -6 8 -15 24 -20 35 -6 11 -24 40 -40 65 -16 25 -35 56
-42 70 -7 14 -18 29 -25 33 -8 5 -11 12 -8 16 2 5 -4 16 -15 26 -11 10 -20 24
-20 32 0 7 -3 13 -8 13 -4 0 -16 16 -26 35 -10 19 -26 42 -35 52 -9 10 -29 38
-46 63 -29 44 -226 307 -262 350 -10 12 -26 31 -36 43 -10 12 -37 44 -60 71
-23 27 -52 60 -65 73 -13 13 -21 23 -19 23 7 0 -131 145 -269 284 -133 132
-284 276 -284 270 0 -2 -15 11 -34 29 -32 30 -94 83 -138 117 -11 8 -30 24
-41 35 -12 11 -38 32 -57 45 -35 25 -72 54 -96 78 -7 6 -17 12 -23 12 -6 0
-11 4 -11 8 0 4 -15 16 -32 27 -18 10 -44 29 -58 42 -14 13 -30 23 -37 23 -7
0 -13 4 -13 8 0 7 -66 54 -150 107 -8 6 -47 31 -85 56 -99 64 -127 82 -150 95
-44 24 -70 39 -75 45 -5 5 -76 45 -205 114 -38 21 -85 46 -102 57 -18 11 -33
16 -33 13 0 -4 -6 -3 -13 3 -23 19 -268 137 -358 172 -30 12 -64 28 -76 36
-13 8 -23 12 -23 10 0 -3 -21 4 -47 15 -27 12 -79 32 -118 45 -38 14 -79 29
-90 34 -11 5 -49 19 -85 30 -36 12 -72 25 -80 28 -8 3 -22 6 -30 8 -8 2 -23 7
-35 13 -22 10 -375 110 -415 118 -14 2 -50 10 -80 18 -30 8 -71 17 -90 20 -19
3 -55 11 -80 16 -67 16 -82 19 -115 23 -16 3 -52 9 -80 14 -27 5 -57 10 -65
10 -8 0 -26 3 -40 6 -14 2 -43 7 -65 11 -22 3 -53 7 -70 10 -69 10 -253 29
-405 41 -69 6 -757 13 -762 9z"/>
</g>
</svg>
